Kobata-Regular.ufo
<glyph name="exclam" format="2">
	<advance width="200"/>
	<unicode hex="0021"/>
	<outline>
		<contour>
			<point x="50" y="800" type="line"/>
			<point x="50" y="200" type="line"/>
			<point x="150" y="200" type="line"/>
			<point x="150" y="800" type="line"/>
		</contour>
		<component base="_part.point"/>
	</outline>
</glyph>
<glyph name="quotedbl" format="2">
	<advance width="300"/>
	<unicode hex="0022"/>
	<outline>
		<contour>
			<point x="200" y="700" type="line"/>
			<point x="200" y="500" type="line"/>
			<point x="300" y="500" type="line"/>
			<point x="300" y="700" type="line"/>
		</contour>
		<contour>
			<point x="0" y="700" type="line"/>
			<point x="0" y="500" type="line"/>
			<point x="100" y="500" type="line"/>
			<point x="100" y="700" type="line"/>
		</contour>
	</outline>
</glyph>
<glyph name="quotesingle" format="2">
	<advance width="100"/>
	<unicode hex="0027"/>
	<outline>
		<contour>
			<point x="0" y="700" type="line"/>
			<point x="0" y="500" type="line"/>
			<point x="100" y="500" type="line"/>
			<point x="100" y="700" type="line"/>
		</contour>
	</outline>
</glyph>
<glyph name="asterisk" format="2">
	<advance width="570"/>
	<unicode hex="002A"/>
	<outline>
		<contour>
			<point x="235" y="800" type="line"/>
			<point x="235" y="600" type="line"/>
			<point x="335" y="600" type="line"/>
			<point x="335" y="800" type="line"/>
		</contour>
		<contour>
			<point x="35" y="500" type="line"/>
			<point x="35" y="400" type="line"/>
			<point x="135" y="400" type="line"/>
			<point x="135" y="500" type="line"/>
		</contour>
		<contour>
			<point x="235" y="500" type="line"/>
			<point x="235" y="300" type="line"/>
			<point x="335" y="300" type="line"/>
			<point x="335" y="500" type="line"/>
		</contour>
		<contour>
			<point x="135" y="600" type="line"/>
			<point x="135" y="500" type="line"/>
			<point x="235" y="500" type="line"/>
			<point x="235" y="600" type="line"/>
		</contour>
		<contour>
			<point x="35" y="700" type="line"/>
			<point x="35" y="600" type="line"/>
			<point x="135" y="600" type="line"/>
			<point x="135" y="700" type="line"/>
		</contour>
		<contour>
			<point x="335" y="600" type="line"/>
			<point x="335" y="500" type="line"/>
			<point x="435" y="500" type="line"/>
			<point x="435" y="600" type="line"/>
		</contour>
		<contour>
			<point x="435" y="500" type="line"/>
			<point x="435" y="400" type="line"/>
			<point x="535" y="400" type="line"/>
			<point x="535" y="500" type="line"/>
		</contour>
		<contour>
			<point x="435" y="700" type="line"/>
			<point x="435" y="600" type="line"/>
			<point x="535" y="600" type="line"/>
			<point x="535" y="700" type="line"/>
		</contour>
	</outline>
</glyph>
<glyph name="comma" format="2">
	<advance width="200"/>
	<unicode hex="002C"/>
	<outline>
		<contour>
			<point x="50" y="100" type="line"/>
			<point x="50" y="-100" type="line"/>
			<point x="150" y="-100" type="line"/>
			<point x="150" y="100" type="line"/>
		</contour>
		<contour>
			<point x="-50" y="-100" type="line"/>
			<point x="-50" y="-200" type="line"/>
			<point x="50" y="-200" type="line"/>
			<point x="50" y="-100" type="line"/>
		</contour>
	</outline>
</glyph>
<glyph name="hyphen" format="2">
	<advance width="300"/>
	<unicode hex="002D"/>
	<outline>
		<contour>
			<point x="50" y="300" type="line"/>
			<point x="50" y="200" type="line"/>
			<point x="250" y="200" type="line"/>
			<point x="250" y="300" type="line"/>
		</contour>
	</outline>
</glyph>
<glyph name="slash" format="2">
	<advance width="300"/>
	<unicode hex="002F"/>
	<outline>
		<contour>
			<point x="150" y="800" type="line"/>
			<point x="150" y="400" type="line"/>
			<point x="250" y="400" type="line"/>
			<point x="250" y="800" type="line"/>
		</contour>
		<contour>
			<point x="50" y="400" type="line"/>
			<point x="50" y="0" type="line"/>
			<point x="150" y="0" type="line"/>
			<point x="150" y="400" type="line"/>
		</contour>
	</outline>
</glyph>
<glyph name="one" format="2">
	<advance width="350"/>
	<unicode hex="0031"/>
	<outline>
		<contour>
			<point x="200" y="700" type="line"/>
			<point x="200" y="0" type="line"/>
			<point x="300" y="0" type="line"/>
			<point x="300" y="700" type="line"/>
		</contour>
		<contour>
			<point x="50" y="800" type="line"/>
			<point x="50" y="700" type="line"/>
			<point x="200" y="700" type="line"/>
			<point x="200" y="800" type="line"/>
		</contour>
	</outline>
</glyph>
<glyph name="four" format="2">
	<advance width="500"/>
	<unicode hex="0034"/>
	<outline>
		<contour>
			<point x="350" y="800" type="line"/>
			<point x="350" y="400" type="line"/>
			<point x="450" y="400" type="line"/>
			<point x="450" y="800" type="line"/>
		</contour>
		<contour>
			<point x="350" y="300" type="line"/>
			<point x="350" y="0" type="line"/>
			<point x="450" y="0" type="line"/>
			<point x="450" y="300" type="line"/>
		</contour>
		<contour>
			<point x="50" y="600" type="line"/>
			<point x="50" y="400" type="line"/>
			<point x="150" y="400" type="line"/>
			<point x="150" y="600" type="line"/>
		</contour>
		<contour>
			<point x="150" y="400" type="line"/>
			<point x="150" y="300" type="line"/>
			<point x="350" y="300" type="line"/>
			<point x="350" y="400" type="line"/>
		</contour>
		<contour>
			<point x="150" y="800" type="line"/>
			<point x="150" y="600" type="line"/>
			<point x="250" y="600" type="line"/>
			<point x="250" y="800" type="line"/>
		</contour>
	</outline>
</glyph>
<glyph name="question" format="2">
	<advance width="400"/>
	<unicode hex="003F"/>
	<outline>
		<contour>
			<point x="250" y="700" type="line"/>
			<point x="250" y="400" type="line"/>
			<point x="350" y="400" type="line"/>
			<point x="350" y="700" type="line"/>
		</contour>
		<contour>
			<point x="150" y="400" type="line"/>
			<point x="150" y="200" type="line"/>
			<point x="250" y="200" type="line"/>
			<point x="250" y="400" type="line"/>
		</contour>
		<contour>
			<point x="50" y="700" type="line"/>
			<point x="50" y="500" type="line"/>
			<point x="150" y="500" type="line"/>
			<point x="150" y="700" type="line"/>
		</contour>
		<contour>
			<point x="150" y="800" type="line"/>
			<point x="150" y="700" type="line"/>
			<point x="250" y="700" type="line"/>
			<point x="250" y="800" type="line"/>
		</contour>
		<component base="_part.point" xOffset="100"/>
	</outline>
</glyph>
<glyph name="at" format="2">
	<advance width="750"/>
	<unicode hex="0040"/>
	<outline>
		<contour>
			<point x="355" y="100" type="curve"/>
			<point x="355" y="100" type="line"/>
			<point x="440" y="100"/>
			<point x="510" y="170"/>
			<point x="510" y="255" type="curve"/>
			<point x="510" y="339"/>
			<point x="440" y="410"/>
			<point x="355" y="410" type="curve"/>
			<point x="269" y="410"/>
			<point x="200" y="339"/>
			<point x="200" y="255" type="curve"/>
			<point x="200" y="170"/>
			<point x="269" y="100"/>
		</contour>
		<contour>
			<point x="150" y="0" type="line"/>
			<point x="150" y="-100" type="line"/>
			<point x="600" y="-100" type="line"/>
			<point x="600" y="0" type="line"/>
		</contour>
		<contour>
			<point x="50" y="500" type="line"/>
			<point x="50" y="0" type="line"/>
			<point x="150" y="0" type="line"/>
			<point x="150" y="500" type="line"/>
		</contour>
		<contour>
			<point x="500" y="200" type="line"/>
			<point x="500" y="100" type="line"/>
			<point x="600" y="100" type="line"/>
			<point x="600" y="200" type="line"/>
		</contour>
		<contour>
			<point x="150" y="600" type="line"/>
			<point x="150" y="500" type="line"/>
			<point x="600" y="500" type="line"/>
			<point x="600" y="600" type="line"/>
		</contour>
		<contour>
			<point x="600" y="500" type="line"/>
			<point x="600" y="200" type="line"/>
			<point x="700" y="200" type="line"/>
			<point x="700" y="500" type="line"/>
		</contour>
	</outline>
</glyph>
<glyph name="C" format="2">
	<advance width="450"/>
	<unicode hex="0043"/>
	<anchor x="250" y="800" name="top"/>
	<anchor x="200" y="0" name="bottom"/>
	<outline>
		<contour>
			<point x="50" y="700" type="line"/>
			<point x="50" y="100" type="line"/>
			<point x="150" y="100" type="line"/>
			<point x="150" y="700" type="line"/>
		</contour>
		<contour>
			<point x="150" y="100" type="line"/>
			<point x="150" y="0" type="line"/>
			<point x="400" y="0" type="line"/>
			<point x="400" y="100" type="line"/>
		</contour>
		<contour>
			<point x="150" y="800" type="line"/>
			<point x="150" y="700" type="line"/>
			<point x="400" y="700" type="line"/>
			<point x="400" y="800" type="line"/>
		</contour>
	</outline>
</glyph>
<glyph name="E" format="2">
	<advance width="450"/>
	<unicode hex="0045"/>
	<anchor x="400" y="0" name="ogonek"/>
	<anchor x="250" y="800" name="top"/>
	<anchor x="20" y="800" name="topleft"/>
	<anchor x="200" y="0" name="bottom"/>
	<outline>
		<contour>
			<point x="50" y="400" type="line"/>
			<point x="50" y="100" type="line"/>
			<point x="150" y="100" type="line"/>
			<point x="150" y="400" type="line"/>
		</contour>
		<contour>
			<point x="150" y="100" type="line"/>
			<point x="150" y="0" type="line"/>
			<point x="400" y="0" type="line"/>
			<point x="400" y="100" type="line"/>
		</contour>
		<contour>
			<point x="150" y="500" type="line"/>
			<point x="150" y="400" type="line"/>
			<point x="350" y="400" type="line"/>
			<point x="350" y="500" type="line"/>
		</contour>
		<contour>
			<point x="50" y="700" type="line"/>
			<point x="50" y="500" type="line"/>
			<point x="150" y="500" type="line"/>
			<point x="150" y="700" type="line"/>
		</contour>
		<contour>
			<point x="150" y="800" type="line"/>
			<point x="150" y="700" type="line"/>
			<point x="400" y="700" type="line"/>
			<point x="400" y="800" type="line"/>
		</contour>
	</outline>
</glyph>
<glyph name="F" format="2">
	<advance width="400"/>
	<unicode hex="0046"/>
	<outline>
		<contour>
			<point x="50" y="700" type="line"/>
			<point x="50" y="400" type="line"/>
			<point x="150" y="400" type="line"/>
			<point x="150" y="700" type="line"/>
		</contour>
		<contour>
			<point x="50" y="300" type="line"/>
			<point x="50" y="0" type="line"/>
			<point x="150" y="0" type="line"/>
			<point x="150" y="300" type="line"/>
		</contour>
		<contour>
			<point x="150" y="400" type="line"/>
			<point x="150" y="300" type="line"/>
			<point x="350" y="300" type="line"/>
			<point x="350" y="400" type="line"/>
		</contour>
		<contour>
			<point x="150" y="800" type="line"/>
			<point x="150" y="700" type="line"/>
			<point x="350" y="700" type="line"/>
			<point x="350" y="800" type="line"/>
		</contour>
	</outline>
</glyph>
<glyph name="H" format="2">
	<advance width="500"/>
	<unicode hex="0048"/>
	<anchor x="250" y="400" name="center"/>
	<anchor x="250" y="800" name="top"/>
	<anchor x="20" y="800" name="topleft"/>
	<anchor x="250" y="0" name="bottom"/>
	<outline>
		<contour>
			<point x="350" y="800" type="line"/>
			<point x="350" y="400" type="line"/>
			<point x="450" y="400" type="line"/>
			<point x="450" y="800" type="line"/>
		</contour>
		<contour>
			<point x="50" y="300" type="line"/>
			<point x="50" y="0" type="line"/>
			<point x="150" y="0" type="line"/>
			<point x="150" y="300" type="line"/>
		</contour>
		<contour>
			<point x="350" y="300" type="line"/>
			<point x="350" y="0" type="line"/>
			<point x="450" y="0" type="line"/>
			<point x="450" y="300" type="line"/>
		</contour>
		<contour>
			<point x="150" y="400" type="line"/>
			<point x="150" y="300" type="line"/>
			<point x="350" y="300" type="line"/>
			<point x="350" y="400" type="line"/>
		</contour>
		<contour>
			<point x="50" y="800" type="line"/>
			<point x="50" y="400" type="line"/>
			<point x="150" y="400" type="line"/>
			<point x="150" y="800" type="line"/>
		</contour>
	</outline>
</glyph>
<glyph name="I" format="2">
	<advance width="200"/>
	<unicode hex="0049"/>
	<anchor x="150" y="0" name="ogonek"/>
	<anchor x="100" y="800" name="top"/>
	<anchor x="20" y="800" name="topleft"/>
	<anchor x="100" y="0" name="bottom"/>
	<outline>
		<contour>
			<point x="50" y="800" type="line"/>
			<point x="50" y="0" type="line"/>
			<point x="150" y="0" type="line"/>
			<point x="150" y="800" type="line"/>
		</contour>
	</outline>
</glyph>
<glyph name="Q" format="2">
	<advance width="900"/>
	<unicode hex="0051"/>
	<anchor x="450" y="800" name="top"/>
	<anchor x="450" y="0" name="bottom"/>
	<outline>
		<contour>
			<point x="750" y="100" type="line"/>
			<point x="750" y="0" type="line"/>
			<point x="850" y="0" type="line"/>
			<point x="850" y="100" type="line"/>
		</contour>
		<component base="O"/>
	</outline>
</glyph>
<glyph name="T" format="2">
	<advance width="500"/>
	<unicode hex="0054"/>
	<anchor x="250" y="400" name="center"/>
	<anchor x="250" y="0" name="bottom"/>
	<anchor x="250" y="800" name="top"/>
	<outline>
		<contour>
			<point x="200" y="700" type="line"/>
			<point x="200" y="0" type="line"/>
			<point x="300" y="0" type="line"/>
			<point x="300" y="700" type="line"/>
		</contour>
		<contour>
			<point x="50" y="800" type="line"/>
			<point x="50" y="700" type="line"/>
			<point x="200" y="700" type="line"/>
			<point x="200" y="800" type="line"/>
		</contour>
		<contour>
			<point x="300" y="800" type="line"/>
			<point x="300" y="700" type="line"/>
			<point x="450" y="700" type="line"/>
			<point x="450" y="800" type="line"/>
		</contour>
	</outline>
</glyph>
<glyph name="U" format="2">
	<advance width="500"/>
	<unicode hex="0055"/>
	<anchor x="350" y="0" name="ogonek"/>
	<anchor x="250" y="800" name="top"/>
	<anchor x="480" y="800" name="topright"/>
	<anchor x="250" y="0" name="bottom"/>
	<outline>
		<contour>
			<point x="350" y="800" type="line"/>
			<point x="350" y="100" type="line"/>
			<point x="450" y="100" type="line"/>
			<point x="450" y="800" type="line"/>
		</contour>
		<contour>
			<point x="150" y="100" type="line"/>
			<point x="150" y="0" type="line"/>
			<point x="350" y="0" type="line"/>
			<point x="350" y="100" type="line"/>
		</contour>
		<contour>
			<point x="50" y="800" type="line"/>
			<point x="50" y="100" type="line"/>
			<point x="150" y="100" type="line"/>
			<point x="150" y="800" type="line"/>
		</contour>
	</outline>
</glyph>
<glyph name="V" format="2">
	<advance width="400"/>
	<unicode hex="0056"/>
	<anchor x="200" y="800" name="top"/>
	<anchor x="200" y="0" name="bottom"/>
	<outline>
		<contour>
			<point x="250" y="800" type="line"/>
			<point x="250" y="200" type="line"/>
			<point x="350" y="200" type="line"/>
			<point x="350" y="800" type="line"/>
		</contour>
		<contour>
			<point x="150" y="200" type="line"/>
			<point x="150" y="0" type="line"/>
			<point x="250" y="0" type="line"/>
			<point x="250" y="200" type="line"/>
		</contour>
		<contour>
			<point x="50" y="800" type="line"/>
			<point x="50" y="200" type="line"/>
			<point x="150" y="200" type="line"/>
			<point x="150" y="800" type="line"/>
		</contour>
	</outline>
</glyph>
<glyph name="W" format="2">
	<advance width="600"/>
	<unicode hex="0057"/>
	<anchor x="300" y="800" name="top"/>
	<anchor x="300" y="0" name="bottom"/>
	<outline>
		<contour>
			<point x="450" y="800" type="line"/>
			<point x="450" y="200" type="line"/>
			<point x="550" y="200" type="line"/>
			<point x="550" y="800" type="line"/>
		</contour>
		<contour>
			<point x="150" y="200" type="line"/>
			<point x="150" y="0" type="line"/>
			<point x="250" y="0" type="line"/>
			<point x="250" y="200" type="line"/>
		</contour>
		<contour>
			<point x="350" y="200" type="line"/>
			<point x="350" y="0" type="line"/>
			<point x="450" y="0" type="line"/>
			<point x="450" y="200" type="line"/>
		</contour>
		<contour>
			<point x="50" y="800" type="line"/>
			<point x="50" y="200" type="line"/>
			<point x="150" y="200" type="line"/>
			<point x="150" y="800" type="line"/>
		</contour>
		<contour>
			<point x="250" y="800" type="line"/>
			<point x="250" y="200" type="line"/>
			<point x="350" y="200" type="line"/>
			<point x="350" y="800" type="line"/>
		</contour>
	</outline>
</glyph>
<glyph name="X" format="2">
	<advance width="400"/>
	<unicode hex="0058"/>
	<anchor x="200" y="800" name="top"/>
	<anchor x="200" y="0" name="bottom"/>
	<outline>
		<contour>
			<point x="250" y="800" type="line"/>
			<point x="250" y="500" type="line"/>
			<point x="350" y="500" type="line"/>
			<point x="350" y="800" type="line"/>
		</contour>
		<contour>
			<point x="50" y="300" type="line"/>
			<point x="50" y="0" type="line"/>
			<point x="150" y="0" type="line"/>
			<point x="150" y="300" type="line"/>
		</contour>
		<contour>
			<point x="250" y="300" type="line"/>
			<point x="250" y="0" type="line"/>
			<point x="350" y="0" type="line"/>
			<point x="350" y="300" type="line"/>
		</contour>
		<contour>
			<point x="150" y="500" type="line"/>
			<point x="150" y="300" type="line"/>
			<point x="250" y="300" type="line"/>
			<point x="250" y="500" type="line"/>
		</contour>
		<contour>
			<point x="50" y="800" type="line"/>
			<point x="50" y="500" type="line"/>
			<point x="150" y="500" type="line"/>
			<point x="150" y="800" type="line"/>
		</contour>
	</outline>
</glyph>
<glyph name="a" format="2">
	<advance width="501"/>
	<unicode hex="0061"/>
	<guideline x="-39" y="400" angle="0"/>
	<guideline x="-239" y="200" angle="90"/>
	<anchor x="451" y="0" name="ogonek"/>
	<anchor x="251" y="0" name="bottom"/>
	<anchor x="251" y="500" name="top"/>
	<outline>
		<contour>
			<point x="193" y="-8" type="curve"/>
			<point x="193" y="-8" type="line"/>
			<point x="280" y="-8"/>
			<point x="351" y="63"/>
			<point x="351" y="150" type="curve"/>
			<point x="351" y="236"/>
			<point x="280" y="308"/>
			<point x="193" y="308" type="curve"/>
			<point x="105" y="308"/>
			<point x="35" y="236"/>
			<point x="35" y="150" type="curve"/>
			<point x="35" y="63"/>
			<point x="105" y="-8"/>
		</contour>
		<contour>
			<point x="351" y="400" type="line"/>
			<point x="351" y="0" type="line"/>
			<point x="451" y="0" type="line"/>
			<point x="451" y="400" type="line"/>
		</contour>
		<contour>
			<point x="151" y="500" type="line"/>
			<point x="151" y="400" type="line"/>
			<point x="351" y="400" type="line"/>
			<point x="351" y="500" type="line"/>
		</contour>
	</outline>
</glyph>
<glyph name="c" format="2">
	<advance width="450"/>
	<unicode hex="0063"/>
	<anchor x="275" y="500" name="top"/>
	<anchor x="200" y="0" name="bottom"/>
	<outline>
		<contour>
			<point x="50" y="400" type="line"/>
			<point x="50" y="100" type="line"/>
			<point x="150" y="100" type="line"/>
			<point x="150" y="400" type="line"/>
		</contour>
		<contour>
			<point x="150" y="100" type="line"/>
			<point x="150" y="0" type="line"/>
			<point x="400" y="0" type="line"/>
			<point x="400" y="100" type="line"/>
		</contour>
		<contour>
			<point x="150" y="500" type="line"/>
			<point x="150" y="400" type="line"/>
			<point x="400" y="400" type="line"/>
			<point x="400" y="500" type="line"/>
		</contour>
	</outline>
</glyph>
<glyph name="f" format="2">
	<advance width="350"/>
	<unicode hex="0066"/>
	<outline>
		<contour>
			<point x="50" y="400" type="line"/>
			<point x="50" y="0" type="line"/>
			<point x="150" y="0" type="line"/>
			<point x="150" y="400" type="line"/>
		</contour>
		<contour>
			<point x="50" y="600" type="line"/>
			<point x="50" y="500" type="line"/>
			<point x="150" y="500" type="line"/>
			<point x="150" y="600" type="line"/>
		</contour>
		<contour>
			<point x="150" y="500" type="line"/>
			<point x="150" y="400" type="line"/>
			<point x="350" y="400" type="line"/>
			<point x="350" y="500" type="line"/>
		</contour>
		<contour>
			<point x="150" y="700" type="line"/>
			<point x="150" y="600" type="line"/>
			<point x="350" y="600" type="line"/>
			<point x="350" y="700" type="line"/>
		</contour>
	</outline>
</glyph>
<glyph name="g" format="2">
	<advance width="550"/>
	<unicode hex="0067"/>
	<anchor x="305" y="500" name="top"/>
	<anchor x="275" y="-200" name="bottom"/>
	<outline>
		<contour>
			<point x="305" y="195" type="curve"/>
			<point x="305" y="195" type="line"/>
			<point x="390" y="195"/>
			<point x="460" y="265"/>
			<point x="460" y="350" type="curve"/>
			<point x="460" y="434"/>
			<point x="390" y="505"/>
			<point x="305" y="505" type="curve"/>
			<point x="219" y="505"/>
			<point x="150" y="434"/>
			<point x="150" y="350" type="curve"/>
			<point x="150" y="265"/>
			<point x="219" y="195"/>
		</contour>
		<contour>
			<point x="150" y="-198" type="line"/>
			<point x="450" y="-200" type="line"/>
			<point x="450" y="-100" type="line"/>
			<point x="150" y="-98" type="line"/>
		</contour>
		<contour>
			<point x="50" y="350" type="line"/>
			<point x="50" y="100" type="line"/>
			<point x="150" y="100" type="line"/>
			<point x="150" y="350" type="line"/>
		</contour>
		<contour>
			<point x="150" y="100" type="line"/>
			<point x="150" y="0" type="line"/>
			<point x="450" y="0" type="line"/>
			<point x="450" y="100" type="line"/>
		</contour>
		<contour>
			<point x="450" y="0" type="line"/>
			<point x="450" y="-100" type="line"/>
			<point x="550" y="-100" type="line"/>
			<point x="550" y="0" type="line"/>
		</contour>
		<contour>
			<point x="450" y="500" type="line"/>
			<point x="450" y="400" type="line"/>
			<point x="550" y="400" type="line"/>
			<point x="550" y="500" type="line"/>
		</contour>
	</outline>
</glyph>
<glyph name="j" format="2">
	<advance width="200"/>
	<unicode hex="006A"/>
	<outline>
		<contour>
			<point x="50" y="400" type="line"/>
			<point x="50" y="-100" type="line"/>
			<point x="150" y="-100" type="line"/>
			<point x="150" y="400" type="line"/>
		</contour>
		<contour>
			<point x="-50" y="-100" type="line"/>
			<point x="-50" y="-200" type="line"/>
			<point x="50" y="-200" type="line"/>
			<point x="50" y="-100" type="line"/>
		</contour>
		<contour>
			<point x="50" y="600" type="line"/>
			<point x="50" y="500" type="line"/>
			<point x="150" y="500" type="line"/>
			<point x="150" y="600" type="line"/>
		</contour>
	</outline>
</glyph>
<glyph name="k" format="2">
	<advance width="400"/>
	<unicode hex="006B"/>
	<anchor x="200" y="800" name="top"/>
	<anchor x="200" y="0" name="bottom"/>
	<outline>
		<contour>
			<point x="50" y="650" type="line"/>
			<point x="50" y="350" type="line"/>
			<point x="150" y="350" type="line"/>
			<point x="150" y="650" type="line"/>
		</contour>
		<contour>
			<point x="50" y="250" type="line"/>
			<point x="50" y="0" type="line"/>
			<point x="150" y="0" type="line"/>
			<point x="150" y="250" type="line"/>
		</contour>
		<contour>
			<point x="250" y="250" type="line"/>
			<point x="250" y="0" type="line"/>
			<point x="350" y="0" type="line"/>
			<point x="350" y="250" type="line"/>
		</contour>
		<contour>
			<point x="150" y="350" type="line"/>
			<point x="150" y="250" type="line"/>
			<point x="250" y="250" type="line"/>
			<point x="250" y="350" type="line"/>
		</contour>
		<contour>
			<point x="250" y="500" type="line"/>
			<point x="250" y="350" type="line"/>
			<point x="350" y="350" type="line"/>
			<point x="350" y="500" type="line"/>
		</contour>
	</outline>
</glyph>
<glyph name="l" format="2">
	<advance width="350"/>
	<unicode hex="006C"/>
	<anchor x="175" y="400" name="center"/>
	<anchor x="100" y="700" name="top"/>
	<anchor x="250" y="500" name="topright"/>
	<anchor x="200" y="0" name="bottom"/>
	<outline>
		<contour>
			<point x="50" y="700" type="line"/>
			<point x="50" y="100" type="line"/>
			<point x="150" y="100" type="line"/>
			<point x="150" y="700" type="line"/>
		</contour>
		<contour>
			<point x="150" y="100" type="line"/>
			<point x="150" y="0" type="line"/>
			<point x="350" y="0" type="line"/>
			<point x="350" y="100" type="line"/>
		</contour>
	</outline>
</glyph>
<glyph name="n" format="2">
	<advance width="450"/>
	<unicode hex="006E"/>
	<anchor x="225" y="500" name="top"/>
	<anchor x="225" y="0" name="bottom"/>
	<outline>
		<contour>
			<point x="300" y="400" type="line"/>
			<point x="300" y="0" type="line"/>
			<point x="400" y="0" type="line"/>
			<point x="400" y="400" type="line"/>
		</contour>
		<contour>
			<point x="100" y="400" type="line"/>
			<point x="100" y="0" type="line"/>
			<point x="200" y="0" type="line"/>
			<point x="200" y="400" type="line"/>
		</contour>
		<contour>
			<point x="0" y="500" type="line"/>
			<point x="0" y="400" type="line"/>
			<point x="100" y="400" type="line"/>
			<point x="100" y="500" type="line"/>
		</contour>
		<contour>
			<point x="200" y="500" type="line"/>
			<point x="200" y="400" type="line"/>
			<point x="300" y="400" type="line"/>
			<point x="300" y="500" type="line"/>
		</contour>
	</outline>
</glyph>
<glyph name="p" format="2">
	<advance width="500"/>
	<unicode hex="0070"/>
	<anchor x="250" y="500" name="top"/>
	<anchor x="250" y="0" name="bottom"/>
	<outline>
		<contour>
			<point x="350" y="400" type="line"/>
			<point x="350" y="100" type="line"/>
			<point x="450" y="100" type="line"/>
			<point x="450" y="400" type="line"/>
		</contour>
		<contour>
			<point x="50" y="0" type="line"/>
			<point x="50" y="-200" type="line"/>
			<point x="150" y="-200" type="line"/>
			<point x="150" y="0" type="line"/>
		</contour>
		<contour>
			<point x="150" y="100" type="line"/>
			<point x="150" y="0" type="line"/>
			<point x="350" y="0" type="line"/>
			<point x="350" y="100" type="line"/>
		</contour>
		<contour>
			<point x="50" y="400" type="line"/>
			<point x="50" y="100" type="line"/>
			<point x="150" y="100" type="line"/>
			<point x="150" y="400" type="line"/>
		</contour>
		<contour>
			<point x="150" y="500" type="line"/>
			<point x="150" y="400" type="line"/>
			<point x="350" y="400" type="line"/>
			<point x="350" y="500" type="line"/>
		</contour>
	</outline>
</glyph>
<glyph name="r" format="2">
	<advance width="400"/>
	<unicode hex="0072"/>
	<anchor x="200" y="500" name="top"/>
	<anchor x="100" y="0" name="bottom"/>
	<outline>
		<contour>
			<point x="50" y="400" type="line"/>
			<point x="50" y="0" type="line"/>
			<point x="150" y="0" type="line"/>
			<point x="150" y="400" type="line"/>
		</contour>
		<contour>
			<point x="150" y="500" type="line"/>
			<point x="150" y="400" type="line"/>
			<point x="350" y="400" type="line"/>
			<point x="350" y="500" type="line"/>
		</contour>
	</outline>
</glyph>
<glyph name="v" format="2">
	<advance width="400"/>
	<unicode hex="0076"/>
	<anchor x="200" y="500" name="top"/>
	<anchor x="200" y="0" name="bottom"/>
	<outline>
		<contour>
			<point x="250" y="500" type="line"/>
			<point x="250" y="100" type="line"/>
			<point x="350" y="100" type="line"/>
			<point x="350" y="500" type="line"/>
		</contour>
		<contour>
			<point x="150" y="100" type="line"/>
			<point x="150" y="0" type="line"/>
			<point x="250" y="0" type="line"/>
			<point x="250" y="100" type="line"/>
		</contour>
		<contour>
			<point x="50" y="500" type="line"/>
			<point x="50" y="100" type="line"/>
			<point x="150" y="100" type="line"/>
			<point x="150" y="500" type="line"/>
		</contour>
	</outline>
</glyph>
<glyph name="w" format="2">
	<advance width="600"/>
	<unicode hex="0077"/>
	<anchor x="300" y="500" name="top"/>
	<anchor x="300" y="0" name="bottom"/>
	<outline>
		<contour>
			<point x="450" y="500" type="line"/>
			<point x="450" y="100" type="line"/>
			<point x="550" y="100" type="line"/>
			<point x="550" y="500" type="line"/>
		</contour>
		<contour>
			<point x="150" y="100" type="line"/>
			<point x="150" y="0" type="line"/>
			<point x="250" y="0" type="line"/>
			<point x="250" y="100" type="line"/>
		</contour>
		<contour>
			<point x="50" y="500" type="line"/>
			<point x="50" y="100" type="line"/>
			<point x="150" y="100" type="line"/>
			<point x="150" y="500" type="line"/>
		</contour>
		<contour>
			<point x="350" y="100" type="line"/>
			<point x="350" y="0" type="line"/>
			<point x="450" y="0" type="line"/>
			<point x="450" y="100" type="line"/>
		</contour>
		<contour>
			<point x="250" y="500" type="line"/>
			<point x="250" y="100" type="line"/>
			<point x="350" y="100" type="line"/>
			<point x="350" y="500" type="line"/>
		</contour>
	</outline>
</glyph>
<glyph name="y" format="2">
	<advance width="400"/>
	<unicode hex="0079"/>
	<anchor x="200" y="500" name="top"/>
	<anchor x="200" y="0" name="bottom"/>
	<outline>
		<contour>
			<point x="250" y="500" type="line"/>
			<point x="250" y="100" type="line"/>
			<point x="350" y="100" type="line"/>
			<point x="350" y="500" type="line"/>
		</contour>
		<contour>
			<point x="50" y="0" type="line"/>
			<point x="50" y="-200" type="line"/>
			<point x="150" y="-200" type="line"/>
			<point x="150" y="0" type="line"/>
		</contour>
		<contour>
			<point x="150" y="100" type="line"/>
			<point x="150" y="0" type="line"/>
			<point x="250" y="0" type="line"/>
			<point x="250" y="100" type="line"/>
		</contour>
		<contour>
			<point x="50" y="500" type="line"/>
			<point x="50" y="100" type="line"/>
			<point x="150" y="100" type="line"/>
			<point x="150" y="500" type="line"/>
		</contour>
	</outline>
</glyph>
<glyph name="z" format="2">
	<advance width="500"/>
	<unicode hex="007A"/>
	<anchor x="250" y="250" name="center"/>
	<anchor x="250" y="0" name="bottom"/>
	<anchor x="250" y="500" name="top"/>
	<outline>
		<contour>
			<point x="50" y="500" type="line"/>
			<point x="50" y="400" type="line"/>
			<point x="350" y="400" type="line"/>
			<point x="350" y="500" type="line"/>
		</contour>
		<contour>
			<point x="50" y="200" type="line"/>
			<point x="50" y="100" type="line"/>
			<point x="150" y="100" type="line"/>
			<point x="150" y="200" type="line"/>
		</contour>
		<contour>
			<point x="150" y="100" type="line"/>
			<point x="150" y="0" type="line"/>
			<point x="450" y="0" type="line"/>
			<point x="450" y="100" type="line"/>
		</contour>
		<contour>
			<point x="150" y="300" type="line"/>
			<point x="150" y="200" type="line"/>
			<point x="350" y="200" type="line"/>
			<point x="350" y="300" type="line"/>
		</contour>
		<contour>
			<point x="350" y="400" type="line"/>
			<point x="350" y="300" type="line"/>
			<point x="450" y="300" type="line"/>
			<point x="450" y="400" type="line"/>
		</contour>
	</outline>
</glyph>
<glyph name="braceleft" format="2">
	<advance width="400"/>
	<unicode hex="007B"/>
	<outline>
		<contour>
			<point x="150" y="700" type="line"/>
			<point x="150" y="450" type="line"/>
			<point x="250" y="450" type="line"/>
			<point x="250" y="700" type="line"/>
		</contour>
		<contour>
			<point x="250" y="100" type="line"/>
			<point x="250" y="0" type="line"/>
			<point x="350" y="0" type="line"/>
			<point x="350" y="100" type="line"/>
		</contour>
		<contour>
			<point x="150" y="350" type="line"/>
			<point x="150" y="100" type="line"/>
			<point x="250" y="100" type="line"/>
			<point x="250" y="350" type="line"/>
		</contour>
		<contour>
			<point x="50" y="450" type="line"/>
			<point x="50" y="350" type="line"/>
			<point x="150" y="350" type="line"/>
			<point x="150" y="450" type="line"/>
		</contour>
		<contour>
			<point x="250" y="800" type="line"/>
			<point x="250" y="700" type="line"/>
			<point x="350" y="700" type="line"/>
			<point x="350" y="800" type="line"/>
		</contour>
	</outline>
</glyph>
<glyph name="bar" format="2">
	<advance width="200"/>
	<unicode hex="007C"/>
	<outline>
		<contour>
			<point x="50" y="800" type="line"/>
			<point x="50" y="-100" type="line"/>
			<point x="150" y="-100" type="line"/>
			<point x="150" y="800" type="line"/>
		</contour>
	</outline>
</glyph>
<glyph name="cent" format="2">
	<advance width="550"/>
	<unicode hex="00A2"/>
	<outline>
		<contour>
			<point x="250" y="400" type="line"/>
			<point x="250" y="100" type="line"/>
			<point x="350" y="100" type="line"/>
			<point x="350" y="400" type="line"/>
		</contour>
		<contour>
			<point x="150" y="100" type="line"/>
			<point x="150" y="0" type="line"/>
			<point x="250" y="0" type="line"/>
			<point x="250" y="100" type="line"/>
		</contour>
		<contour>
			<point x="250" y="0" type="line"/>
			<point x="250" y="-100" type="line"/>
			<point x="350" y="-100" type="line"/>
			<point x="350" y="0" type="line"/>
		</contour>
		<contour>
			<point x="50" y="400" type="line"/>
			<point x="50" y="100" type="line"/>
			<point x="150" y="100" type="line"/>
			<point x="150" y="400" type="line"/>
		</contour>
		<contour>
			<point x="350" y="100" type="line"/>
			<point x="350" y="0" type="line"/>
			<point x="500" y="0" type="line"/>
			<point x="500" y="100" type="line"/>
		</contour>
		<contour>
			<point x="150" y="500" type="line"/>
			<point x="150" y="400" type="line"/>
			<point x="250" y="400" type="line"/>
			<point x="250" y="500" type="line"/>
		</contour>
		<contour>
			<point x="250" y="600" type="line"/>
			<point x="250" y="500" type="line"/>
			<point x="350" y="500" type="line"/>
			<point x="350" y="600" type="line"/>
		</contour>
		<contour>
			<point x="350" y="500" type="line"/>
			<point x="350" y="400" type="line"/>
			<point x="500" y="400" type="line"/>
			<point x="500" y="500" type="line"/>
		</contour>
	</outline>
</glyph>
<glyph name="currency" format="2">
	<advance width="700"/>
	<unicode hex="00A4"/>
	<outline>
		<contour>
			<point x="450" y="400" type="line"/>
			<point x="450" y="200" type="line"/>
			<point x="550" y="200" type="line"/>
			<point x="550" y="400" type="line"/>
		</contour>
		<contour>
			<point x="50" y="100" type="line"/>
			<point x="50" y="0" type="line"/>
			<point x="150" y="0" type="line"/>
			<point x="150" y="100" type="line"/>
		</contour>
		<contour>
			<point x="150" y="400" type="line"/>
			<point x="150" y="200" type="line"/>
			<point x="250" y="200" type="line"/>
			<point x="250" y="400" type="line"/>
		</contour>
		<contour>
			<point x="250" y="200" type="line"/>
			<point x="250" y="100" type="line"/>
			<point x="450" y="100" type="line"/>
			<point x="450" y="200" type="line"/>
		</contour>
		<contour>
			<point x="550" y="100" type="line"/>
			<point x="550" y="0" type="line"/>
			<point x="650" y="0" type="line"/>
			<point x="650" y="100" type="line"/>
		</contour>
		<contour>
			<point x="50" y="600" type="line"/>
			<point x="50" y="500" type="line"/>
			<point x="150" y="500" type="line"/>
			<point x="150" y="600" type="line"/>
		</contour>
		<contour>
			<point x="250" y="500" type="line"/>
			<point x="250" y="400" type="line"/>
			<point x="450" y="400" type="line"/>
			<point x="450" y="500" type="line"/>
		</contour>
		<contour>
			<point x="550" y="600" type="line"/>
			<point x="550" y="500" type="line"/>
			<point x="650" y="500" type="line"/>
			<point x="650" y="600" type="line"/>
		</contour>
	</outline>
</glyph>
<glyph name="section" format="2">
	<advance width="500"/>
	<unicode hex="00A7"/>
	<outline>
		<contour>
			<point x="150" y="800" type="line"/>
			<point x="150" y="700" type="line"/>
			<point x="450" y="700" type="line"/>
			<point x="450" y="800" type="line"/>
		</contour>
		<contour>
			<point x="50" y="100" type="line"/>
			<point x="50" y="0" type="line"/>
			<point x="350" y="0" type="line"/>
			<point x="350" y="100" type="line"/>
		</contour>
		<contour>
			<point x="50" y="450" type="line"/>
			<point x="50" y="350" type="line"/>
			<point x="150" y="350" type="line"/>
			<point x="150" y="450" type="line"/>
		</contour>
		<contour>
			<point x="150" y="350" type="line"/>
			<point x="150" y="250" type="line"/>
			<point x="350" y="250" type="line"/>
			<point x="350" y="350" type="line"/>
		</contour>
		<contour>
			<point x="350" y="250" type="line"/>
			<point x="350" y="100" type="line"/>
			<point x="450" y="100" type="line"/>
			<point x="450" y="250" type="line"/>
		</contour>
		<contour>
			<point x="50" y="700" type="line"/>
			<point x="50" y="550" type="line"/>
			<point x="150" y="550" type="line"/>
			<point x="150" y="700" type="line"/>
		</contour>
		<contour>
			<point x="150" y="550" type="line"/>
			<point x="150" y="450" type="line"/>
			<point x="350" y="450" type="line"/>
			<point x="350" y="550" type="line"/>
		</contour>
		<contour>
			<point x="350" y="450" type="line"/>
			<point x="350" y="350" type="line"/>
			<point x="450" y="350" type="line"/>
			<point x="450" y="450" type="line"/>
		</contour>
	</outline>
</glyph>
<glyph name="guillemotleft" format="2">
	<advance width="500"/>
	<unicode hex="00AB"/>
	<outline>
		<contour>
			<point x="350" y="400" type="line"/>
			<point x="350" y="300" type="line"/>
			<point x="450" y="300" type="line"/>
			<point x="450" y="400" type="line"/>
		</contour>
		<contour>
			<point x="0" y="300" type="line"/>
			<point x="0" y="200" type="line"/>
			<point x="100" y="200" type="line"/>
			<point x="100" y="300" type="line"/>
		</contour>
		<contour>
			<point x="100" y="200" type="line"/>
			<point x="100" y="100" type="line"/>
			<point x="200" y="100" type="line"/>
			<point x="200" y="200" type="line"/>
		</contour>
		<contour>
			<point x="100" y="400" type="line"/>
			<point x="100" y="300" type="line"/>
			<point x="200" y="300" type="line"/>
			<point x="200" y="400" type="line"/>
		</contour>
		<contour>
			<point x="250" y="300" type="line"/>
			<point x="250" y="200" type="line"/>
			<point x="350" y="200" type="line"/>
			<point x="350" y="300" type="line"/>
		</contour>
		<contour>
			<point x="350" y="200" type="line"/>
			<point x="350" y="100" type="line"/>
			<point x="450" y="100" type="line"/>
			<point x="450" y="200" type="line"/>
		</contour>
	</outline>
</glyph>
<glyph name="plusminus" format="2">
	<advance width="500"/>
	<unicode hex="00B1"/>
	<outline>
		<contour>
			<point x="50" y="200" type="line"/>
			<point x="50" y="100" type="line"/>
			<point x="450" y="100" type="line"/>
			<point x="450" y="200" type="line"/>
		</contour>
		<contour>
			<point x="50" y="500" type="line"/>
			<point x="50" y="400" type="line"/>
			<point x="200" y="400" type="line"/>
			<point x="200" y="500" type="line"/>
		</contour>
		<contour>
			<point x="200" y="400" type="line"/>
			<point x="200" y="300" type="line"/>
			<point x="300" y="300" type="line"/>
			<point x="300" y="400" type="line"/>
		</contour>
		<contour>
			<point x="200" y="600" type="line"/>
			<point x="200" y="500" type="line"/>
			<point x="300" y="500" type="line"/>
			<point x="300" y="600" type="line"/>
		</contour>
		<contour>
			<point x="300" y="500" type="line"/>
			<point x="300" y="400" type="line"/>
			<point x="450" y="400" type="line"/>
			<point x="450" y="500" type="line"/>
		</contour>
	</outline>
</glyph>
<glyph name="paragraph" format="2">
	<advance width="650"/>
	<unicode hex="00B6"/>
	<outline>
		<contour>
			<point x="193" y="292" type="curve"/>
			<point x="193" y="292" type="line"/>
			<point x="280" y="292"/>
			<point x="351" y="363"/>
			<point x="351" y="450" type="curve"/>
			<point x="351" y="536"/>
			<point x="280" y="608"/>
			<point x="193" y="608" type="curve"/>
			<point x="105" y="608"/>
			<point x="35" y="536"/>
			<point x="35" y="450" type="curve"/>
			<point x="35" y="363"/>
			<point x="105" y="292"/>
		</contour>
		<contour>
			<point x="350" y="600" type="line"/>
			<point x="350" y="0" type="line"/>
			<point x="450" y="0" type="line"/>
			<point x="450" y="600" type="line"/>
		</contour>
		<contour>
			<point x="500" y="600" type="line"/>
			<point x="500" y="0" type="line"/>
			<point x="600" y="0" type="line"/>
			<point x="600" y="600" type="line"/>
		</contour>
	</outline>
</glyph>
<glyph name="AE" format="2">
	<advance width="750"/>
	<unicode hex="00C6"/>
	<anchor x="350" y="800" name="top"/>
	<anchor x="350" y="0" name="bottom"/>
	<outline>
		<contour>
			<point x="350" y="700" type="line"/>
			<point x="350" y="400" type="line"/>
			<point x="450" y="400" type="line"/>
			<point x="450" y="700" type="line"/>
		</contour>
		<contour>
			<point x="50" y="300" type="line"/>
			<point x="50" y="0" type="line"/>
			<point x="150" y="0" type="line"/>
			<point x="150" y="300" type="line"/>
		</contour>
		<contour>
			<point x="350" y="300" type="line"/>
			<point x="350" y="100" type="line"/>
			<point x="450" y="100" type="line"/>
			<point x="450" y="300" type="line"/>
		</contour>
		<contour>
			<point x="150" y="400" type="line"/>
			<point x="150" y="300" type="line"/>
			<point x="350" y="300" type="line"/>
			<point x="350" y="400" type="line"/>
		</contour>
		<contour>
			<point x="450" y="100" type="line"/>
			<point x="450" y="0" type="line"/>
			<point x="700" y="0" type="line"/>
			<point x="700" y="100" type="line"/>
		</contour>
		<contour>
			<point x="50" y="700" type="line"/>
			<point x="50" y="400" type="line"/>
			<point x="150" y="400" type="line"/>
			<point x="150" y="700" type="line"/>
		</contour>
		<contour>
			<point x="450" y="400" type="line"/>
			<point x="450" y="300" type="line"/>
			<point x="650" y="300" type="line"/>
			<point x="650" y="400" type="line"/>
		</contour>
		<contour>
			<point x="150" y="800" type="line"/>
			<point x="150" y="700" type="line"/>
			<point x="350" y="700" type="line"/>
			<point x="350" y="800" type="line"/>
		</contour>
		<contour>
			<point x="450" y="800" type="line"/>
			<point x="450" y="700" type="line"/>
			<point x="700" y="700" type="line"/>
			<point x="700" y="800" type="line"/>
		</contour>
	</outline>
</glyph>
<glyph name="Oslash" format="2">
	<advance width="910"/>
	<unicode hex="00D8"/>
	<outline>
		<contour>
			<point x="455" y="-20" type="curve"/>
			<point x="455" y="-20" type="line"/>
			<point x="689" y="-20"/>
			<point x="875" y="166"/>
			<point x="875" y="400" type="curve"/>
			<point x="875" y="628"/>
			<point x="689" y="820"/>
			<point x="455" y="820" type="curve"/>
			<point x="221" y="820"/>
			<point x="35" y="628"/>
			<point x="35" y="400" type="curve"/>
			<point x="35" y="166"/>
			<point x="221" y="-20"/>
		</contour>
		<contour>
			<point x="60" y="100" type="line"/>
			<point x="60" y="0" type="line"/>
			<point x="160" y="0" type="line"/>
			<point x="160" y="100" type="line"/>
		</contour>
		<contour>
			<point x="750" y="800" type="line"/>
			<point x="750" y="700" type="line"/>
			<point x="850" y="700" type="line"/>
			<point x="850" y="800" type="line"/>
		</contour>
	</outline>
</glyph>
<glyph name="Thorn" format="2">
	<advance width="500"/>
	<unicode hex="00DE"/>
	<outline>
		<contour>
			<point x="50" y="800" type="line"/>
			<point x="50" y="600" type="line"/>
			<point x="150" y="600" type="line"/>
			<point x="150" y="800" type="line"/>
		</contour>
		<contour>
			<point x="50" y="200" type="line"/>
			<point x="50" y="0" type="line"/>
			<point x="150" y="0" type="line"/>
			<point x="150" y="200" type="line"/>
		</contour>
		<contour>
			<point x="150" y="300" type="line"/>
			<point x="150" y="200" type="line"/>
			<point x="350" y="200" type="line"/>
			<point x="350" y="300" type="line"/>
		</contour>
		<contour>
			<point x="50" y="500" type="line"/>
			<point x="50" y="300" type="line"/>
			<point x="150" y="300" type="line"/>
			<point x="150" y="500" type="line"/>
		</contour>
		<contour>
			<point x="150" y="600" type="line"/>
			<point x="150" y="500" type="line"/>
			<point x="350" y="500" type="line"/>
			<point x="350" y="600" type="line"/>
		</contour>
		<contour>
			<point x="350" y="500" type="line"/>
			<point x="350" y="300" type="line"/>
			<point x="450" y="300" type="line"/>
			<point x="450" y="500" type="line"/>
		</contour>
	</outline>
</glyph>
<glyph name="ae" format="2">
	<advance width="801"/>
	<unicode hex="00E6"/>
	<anchor x="401" y="500" name="top"/>
	<anchor x="401" y="0" name="bottom"/>
	<outline>
		<contour>
			<point x="608" y="192" type="curve"/>
			<point x="608" y="192" type="line"/>
			<point x="695" y="192"/>
			<point x="766" y="263"/>
			<point x="766" y="350" type="curve"/>
			<point x="766" y="436"/>
			<point x="695" y="508"/>
			<point x="608" y="508" type="curve"/>
			<point x="520" y="508"/>
			<point x="450" y="436"/>
			<point x="450" y="350" type="curve"/>
			<point x="450" y="263"/>
			<point x="520" y="192"/>
		</contour>
		<contour>
			<point x="193" y="-8" type="curve"/>
			<point x="193" y="-8" type="line"/>
			<point x="280" y="-8"/>
			<point x="351" y="63"/>
			<point x="351" y="150" type="curve"/>
			<point x="351" y="236"/>
			<point x="280" y="308"/>
			<point x="193" y="308" type="curve"/>
			<point x="105" y="308"/>
			<point x="35" y="236"/>
			<point x="35" y="150" type="curve"/>
			<point x="35" y="63"/>
			<point x="105" y="-8"/>
		</contour>
		<contour>
			<point x="151" y="500" type="line"/>
			<point x="151" y="400" type="line"/>
			<point x="351" y="400" type="line"/>
			<point x="351" y="500" type="line"/>
		</contour>
		<contour>
			<point x="350" y="400" type="line"/>
			<point x="350" y="100" type="line"/>
			<point x="450" y="100" type="line"/>
			<point x="450" y="400" type="line"/>
		</contour>
		<contour>
			<point x="450" y="100" type="line"/>
			<point x="450" y="0" type="line"/>
			<point x="750" y="0" type="line"/>
			<point x="750" y="100" type="line"/>
		</contour>
	</outline>
</glyph>
<glyph name="divide" format="2">
	<advance width="500"/>
	<unicode hex="00F7"/>
	<outline>
		<contour>
			<point x="50" y="300" type="line"/>
			<point x="50" y="200" type="line"/>
			<point x="450" y="200" type="line"/>
			<point x="450" y="300" type="line"/>
		</contour>
		<component base="_part.point" xOffset="150"/>
		<component base="_part.point" xOffset="150" yOffset="400"/>
	</outline>
</glyph>
<glyph name="oslash" format="2">
	<advance width="590"/>
	<unicode hex="00F8"/>
	<outline>
		<contour>
			<point x="465" y="550" type="line"/>
			<point x="465" y="450" type="line"/>
			<point x="565" y="450" type="line"/>
			<point x="565" y="550" type="line"/>
		</contour>
		<contour>
			<point x="25" y="50" type="line"/>
			<point x="25" y="-50" type="line"/>
			<point x="125" y="-50" type="line"/>
			<point x="125" y="50" type="line"/>
		</contour>
		<component base="o"/>
	</outline>
</glyph>
<glyph name="Aogonek" format="2">
	<advance width="550"/>
	<unicode hex="0104"/>
	<anchor x="450" y="0" name="ogonek"/>
	<anchor x="250" y="0" name="bottom"/>
	<anchor x="250" y="800" name="top"/>
	<outline>
		<contour>
			<point x="350" y="-100" type="line"/>
			<point x="350" y="-200" type="line"/>
			<point x="450" y="-200" type="line"/>
			<point x="450" y="-100" type="line"/>
		</contour>
		<contour>
			<point x="250" y="0" type="line"/>
			<point x="250" y="-100" type="line"/>
			<point x="350" y="-100" type="line"/>
			<point x="350" y="0" type="line"/>
		</contour>
		<component base="A"/>
	</outline>
</glyph>
<glyph name="aogonek" format="2">
	<advance width="501"/>
	<unicode hex="0105"/>
	<outline>
		<contour>
			<point x="351" y="-100" type="line"/>
			<point x="351" y="-200" type="line"/>
			<point x="451" y="-200" type="line"/>
			<point x="451" y="-100" type="line"/>
		</contour>
		<contour>
			<point x="251" y="0" type="line"/>
			<point x="251" y="-100" type="line"/>
			<point x="351" y="-100" type="line"/>
			<point x="351" y="0" type="line"/>
		</contour>
		<component base="a"/>
	</outline>
</glyph>
<glyph name="dcaron" format="2">
	<advance width="600"/>
	<unicode hex="010F"/>
	<outline>
		<contour>
			<point x="500" y="700" type="line"/>
			<point x="500" y="500" type="line"/>
			<point x="600" y="500" type="line"/>
			<point x="600" y="700" type="line"/>
		</contour>
		<component base="d"/>
	</outline>
</glyph>
<glyph name="Emacron" format="2">
	<advance width="450"/>
	<unicode hex="0112"/>
	<outline>
		<contour>
			<point x="100" y="1000" type="line"/>
			<point x="100" y="900" type="line"/>
			<point x="400" y="900" type="line"/>
			<point x="400" y="1000" type="line"/>
		</contour>
		<component base="E"/>
	</outline>
</glyph>
<glyph name="eogonek" format="2">
	<advance width="501"/>
	<unicode hex="0119"/>
	<outline>
		<contour>
			<point x="308" y="192" type="curve"/>
			<point x="308" y="192" type="line"/>
			<point x="395" y="192"/>
			<point x="466" y="263"/>
			<point x="466" y="350" type="curve"/>
			<point x="466" y="436"/>
			<point x="395" y="508"/>
			<point x="308" y="508" type="curve"/>
			<point x="220" y="508"/>
			<point x="150" y="436"/>
			<point x="150" y="350" type="curve"/>
			<point x="150" y="263"/>
			<point x="220" y="192"/>
		</contour>
		<contour>
			<point x="250" y="-100" type="line"/>
			<point x="250" y="-200" type="line"/>
			<point x="350" y="-200" type="line"/>
			<point x="350" y="-100" type="line"/>
		</contour>
		<contour>
			<point x="350" y="-200" type="line"/>
			<point x="350" y="-300" type="line"/>
			<point x="450" y="-300" type="line"/>
			<point x="450" y="-200" type="line"/>
		</contour>
		<contour>
			<point x="150" y="100" type="line"/>
			<point x="150" y="0" type="line"/>
			<point x="350" y="0" type="line"/>
			<point x="350" y="100" type="line"/>
		</contour>
		<contour>
			<point x="50" y="350" type="line"/>
			<point x="50" y="100" type="line"/>
			<point x="150" y="100" type="line"/>
			<point x="150" y="350" type="line"/>
		</contour>
		<contour>
			<point x="350" y="0" type="line"/>
			<point x="350" y="-100" type="line"/>
			<point x="450" y="-100" type="line"/>
			<point x="450" y="0" type="line"/>
		</contour>
	</outline>
</glyph>
<glyph name="Hbar" format="2">
	<advance width="600"/>
	<unicode hex="0126"/>
	<outline>
		<contour>
			<point x="400" y="300" type="line"/>
			<point x="400" y="0" type="line"/>
			<point x="500" y="0" type="line"/>
			<point x="500" y="300" type="line"/>
		</contour>
		<contour>
			<point x="100" y="300" type="line"/>
			<point x="100" y="0" type="line"/>
			<point x="200" y="0" type="line"/>
			<point x="200" y="300" type="line"/>
		</contour>
		<contour>
			<point x="100" y="550" type="line"/>
			<point x="100" y="400" type="line"/>
			<point x="200" y="400" type="line"/>
			<point x="200" y="550" type="line"/>
		</contour>
		<contour>
			<point x="200" y="400" type="line"/>
			<point x="200" y="300" type="line"/>
			<point x="400" y="300" type="line"/>
			<point x="400" y="400" type="line"/>
		</contour>
		<contour>
			<point x="0" y="650" type="line"/>
			<point x="0" y="550" type="line"/>
			<point x="100" y="550" type="line"/>
			<point x="100" y="650" type="line"/>
		</contour>
		<contour>
			<point x="100" y="800" type="line"/>
			<point x="100" y="650" type="line"/>
			<point x="200" y="650" type="line"/>
			<point x="200" y="800" type="line"/>
		</contour>
		<contour>
			<point x="200" y="650" type="line"/>
			<point x="200" y="550" type="line"/>
			<point x="400" y="550" type="line"/>
			<point x="400" y="650" type="line"/>
		</contour>
		<contour>
			<point x="400" y="550" type="line"/>
			<point x="400" y="400" type="line"/>
			<point x="500" y="400" type="line"/>
			<point x="500" y="550" type="line"/>
		</contour>
		<contour>
			<point x="500" y="650" type="line"/>
			<point x="500" y="550" type="line"/>
			<point x="600" y="550" type="line"/>
			<point x="600" y="650" type="line"/>
		</contour>
		<contour>
			<point x="400" y="800" type="line"/>
			<point x="400" y="650" type="line"/>
			<point x="500" y="650" type="line"/>
			<point x="500" y="800" type="line"/>
		</contour>
	</outline>
</glyph>
<glyph name="hbar" format="2">
	<advance width="450"/>
	<unicode hex="0127"/>
	<outline>
		<contour>
			<point x="300" y="400" type="line"/>
			<point x="300" y="0" type="line"/>
			<point x="400" y="0" type="line"/>
			<point x="400" y="400" type="line"/>
		</contour>
		<contour>
			<point x="100" y="400" type="line"/>
			<point x="100" y="0" type="line"/>
			<point x="200" y="0" type="line"/>
			<point x="200" y="400" type="line"/>
		</contour>
		<contour>
			<point x="0" y="700" type="line"/>
			<point x="0" y="600" type="line"/>
			<point x="100" y="600" type="line"/>
			<point x="100" y="700" type="line"/>
		</contour>
		<contour>
			<point x="100" y="600" type="line"/>
			<point x="100" y="500" type="line"/>
			<point x="200" y="500" type="line"/>
			<point x="200" y="600" type="line"/>
		</contour>
		<contour>
			<point x="200" y="500" type="line"/>
			<point x="200" y="400" type="line"/>
			<point x="300" y="400" type="line"/>
			<point x="300" y="500" type="line"/>
		</contour>
		<contour>
			<point x="100" y="800" type="line"/>
			<point x="100" y="700" type="line"/>
			<point x="200" y="700" type="line"/>
			<point x="200" y="800" type="line"/>
		</contour>
		<contour>
			<point x="200" y="700" type="line"/>
			<point x="200" y="600" type="line"/>
			<point x="400" y="600" type="line"/>
			<point x="400" y="700" type="line"/>
		</contour>
	</outline>
</glyph>
<glyph name="Iogonek" format="2">
	<advance width="200"/>
	<unicode hex="012E"/>
	<outline>
		<contour>
			<point x="50" y="-100" type="line"/>
			<point x="50" y="-200" type="line"/>
			<point x="150" y="-200" type="line"/>
			<point x="150" y="-100" type="line"/>
		</contour>
		<contour>
			<point x="-50" y="0" type="line"/>
			<point x="-50" y="-100" type="line"/>
			<point x="50" y="-100" type="line"/>
			<point x="50" y="0" type="line"/>
		</contour>
		<component base="I"/>
	</outline>
</glyph>
<glyph name="dotlessi" format="2">
	<advance width="230"/>
	<unicode hex="0131"/>
	<anchor x="165" y="0" name="ogonek"/>
	<anchor x="115" y="0" name="bottom"/>
	<anchor x="115" y="400" name="top"/>
	<outline>
		<contour>
			<point x="65" y="400" type="line"/>
			<point x="65" y="0" type="line"/>
			<point x="165" y="0" type="line"/>
			<point x="165" y="400" type="line"/>
		</contour>
	</outline>
</glyph>
<glyph name="lslash" format="2">
	<advance width="450"/>
	<unicode hex="0142"/>
	<outline>
		<contour>
			<point x="200" y="100" type="line"/>
			<point x="200" y="0" type="line"/>
			<point x="400" y="0" type="line"/>
			<point x="400" y="100" type="line"/>
		</contour>
		<contour>
			<point x="100" y="250" type="line"/>
			<point x="100" y="100" type="line"/>
			<point x="200" y="100" type="line"/>
			<point x="200" y="250" type="line"/>
		</contour>
		<contour>
			<point x="0" y="350" type="line"/>
			<point x="0" y="250" type="line"/>
			<point x="100" y="250" type="line"/>
			<point x="100" y="350" type="line"/>
		</contour>
		<contour>
			<point x="100" y="450" type="line"/>
			<point x="100" y="350" type="line"/>
			<point x="200" y="350" type="line"/>
			<point x="200" y="450" type="line"/>
		</contour>
		<contour>
			<point x="200" y="550" type="line"/>
			<point x="200" y="450" type="line"/>
			<point x="300" y="450" type="line"/>
			<point x="300" y="550" type="line"/>
		</contour>
		<contour>
			<point x="100" y="700" type="line"/>
			<point x="100" y="550" type="line"/>
			<point x="200" y="550" type="line"/>
			<point x="200" y="700" type="line"/>
		</contour>
		<contour>
			<point x="300" y="650" type="line"/>
			<point x="300" y="550" type="line"/>
			<point x="400" y="550" type="line"/>
			<point x="400" y="650" type="line"/>
		</contour>
	</outline>
</glyph>
<glyph name="Eng" format="2">
	<advance width="600"/>
	<unicode hex="014A"/>
	<anchor x="300" y="800" name="top"/>
	<anchor x="300" y="0" name="bottom"/>
	<outline>
		<contour>
			<point x="50" y="700" type="line"/>
			<point x="50" y="0" type="line"/>
			<point x="150" y="0" type="line"/>
			<point x="150" y="700" type="line"/>
		</contour>
		<contour>
			<point x="450" y="800" type="line"/>
			<point x="450" y="151" type="line"/>
			<point x="550" y="151" type="line"/>
			<point x="550" y="800" type="line"/>
		</contour>
		<contour>
			<point x="350" y="-100" type="line"/>
			<point x="350" y="-200" type="line"/>
			<point x="450" y="-200" type="line"/>
			<point x="450" y="-100" type="line"/>
		</contour>
		<contour>
			<point x="450" y="51" type="line"/>
			<point x="450" y="-100" type="line"/>
			<point x="550" y="-100" type="line"/>
			<point x="550" y="51" type="line"/>
		</contour>
		<contour>
			<point x="350" y="151" type="line"/>
			<point x="350" y="51" type="line"/>
			<point x="450" y="51" type="line"/>
			<point x="450" y="151" type="line"/>
		</contour>
		<contour>
			<point x="250" y="700" type="line"/>
			<point x="250" y="151" type="line"/>
			<point x="350" y="151" type="line"/>
			<point x="350" y="700" type="line"/>
		</contour>
		<contour>
			<point x="150" y="800" type="line"/>
			<point x="150" y="700" type="line"/>
			<point x="250" y="700" type="line"/>
			<point x="250" y="800" type="line"/>
		</contour>
	</outline>
</glyph>
<glyph name="OE" format="2">
	<advance width="1272"/>
	<unicode hex="0152"/>
	<outline>
		<contour>
			<point x="455" y="-20" type="curve"/>
			<point x="455" y="-20" type="line"/>
			<point x="689" y="-20"/>
			<point x="875" y="166"/>
			<point x="875" y="400" type="curve"/>
			<point x="875" y="628"/>
			<point x="689" y="820"/>
			<point x="455" y="820" type="curve"/>
			<point x="221" y="820"/>
			<point x="35" y="628"/>
			<point x="35" y="400" type="curve"/>
			<point x="35" y="166"/>
			<point x="221" y="-20"/>
		</contour>
		<contour>
			<point x="872" y="350" type="line"/>
			<point x="872" y="100" type="line"/>
			<point x="972" y="100" type="line"/>
			<point x="972" y="350" type="line"/>
		</contour>
		<contour>
			<point x="972" y="100" type="line"/>
			<point x="972" y="0" type="line"/>
			<point x="1222" y="0" type="line"/>
			<point x="1222" y="100" type="line"/>
		</contour>
		<contour>
			<point x="972" y="450" type="line"/>
			<point x="972" y="350" type="line"/>
			<point x="1172" y="350" type="line"/>
			<point x="1172" y="450" type="line"/>
		</contour>
		<contour>
			<point x="872" y="700" type="line"/>
			<point x="872" y="450" type="line"/>
			<point x="972" y="450" type="line"/>
			<point x="972" y="700" type="line"/>
		</contour>
		<contour>
			<point x="972" y="800" type="line"/>
			<point x="972" y="700" type="line"/>
			<point x="1222" y="700" type="line"/>
			<point x="1222" y="800" type="line"/>
		</contour>
	</outline>
</glyph>
<glyph name="oe" format="2">
	<advance width="1006"/>
	<unicode hex="0153"/>
	<outline>
		<contour>
			<point x="295" y="-10" type="curve"/>
			<point x="295" y="-10" type="line"/>
			<point x="439" y="-10"/>
			<point x="555" y="106"/>
			<point x="555" y="250" type="curve"/>
			<point x="555" y="391"/>
			<point x="439" y="510"/>
			<point x="295" y="510" type="curve"/>
			<point x="150" y="510"/>
			<point x="35" y="391"/>
			<point x="35" y="250" type="curve"/>
			<point x="35" y="106"/>
			<point x="150" y="-10"/>
		</contour>
		<contour>
			<point x="555" y="350" type="line"/>
			<point x="555" y="100" type="line"/>
			<point x="655" y="100" type="line"/>
			<point x="655" y="350" type="line"/>
		</contour>
		<contour>
			<point x="655" y="100" type="line"/>
			<point x="655" y="0" type="line"/>
			<point x="955" y="0" type="line"/>
			<point x="955" y="100" type="line"/>
		</contour>
		<contour>
			<point x="813" y="192" type="curve"/>
			<point x="813" y="192" type="line"/>
			<point x="900" y="192"/>
			<point x="971" y="263"/>
			<point x="971" y="350" type="curve"/>
			<point x="971" y="436"/>
			<point x="900" y="508"/>
			<point x="813" y="508" type="curve"/>
			<point x="725" y="508"/>
			<point x="655" y="436"/>
			<point x="655" y="350" type="curve"/>
			<point x="655" y="263"/>
			<point x="725" y="192"/>
		</contour>
	</outline>
</glyph>
<glyph name="uni0163" format="2">
	<advance width="500"/>
	<unicode hex="0163"/>
	<anchor x="275" y="250" name="center"/>
	<anchor x="200" y="600" name="top"/>
	<anchor x="400" y="500" name="topright"/>
	<anchor x="350" y="-200" name="bottom"/>
	<outline>
		<contour>
			<point x="150" y="400" type="line"/>
			<point x="150" y="100" type="line"/>
			<point x="250" y="100" type="line"/>
			<point x="250" y="400" type="line"/>
		</contour>
		<contour>
			<point x="250" y="500" type="line"/>
			<point x="250" y="400" type="line"/>
			<point x="450" y="400" type="line"/>
			<point x="450" y="500" type="line"/>
		</contour>
		<contour>
			<point x="50" y="500" type="line"/>
			<point x="50" y="400" type="line"/>
			<point x="150" y="400" type="line"/>
			<point x="150" y="500" type="line"/>
		</contour>
		<contour>
			<point x="250" y="100" type="line"/>
			<point x="250" y="0" type="line"/>
			<point x="350" y="0" type="line"/>
			<point x="350" y="100" type="line"/>
		</contour>
		<contour>
			<point x="150" y="600" type="line"/>
			<point x="150" y="500" type="line"/>
			<point x="250" y="500" type="line"/>
			<point x="250" y="600" type="line"/>
		</contour>
		<contour>
			<point x="350" y="0" type="line"/>
			<point x="350" y="-100" type="line"/>
			<point x="450" y="-100" type="line"/>
			<point x="450" y="0" type="line"/>
		</contour>
		<contour>
			<point x="250" y="-100" type="line"/>
			<point x="250" y="-200" type="line"/>
			<point x="350" y="-200" type="line"/>
			<point x="350" y="-100" type="line"/>
		</contour>
	</outline>
</glyph>
<glyph name="Zcaron" format="2">
	<advance width="500"/>
	<unicode hex="017D"/>
	<anchor x="250" y="400" name="center"/>
	<anchor x="250" y="0" name="bottom"/>
	<anchor x="250" y="800" name="top"/>
	<outline>
		<contour>
			<point x="50" y="800" type="line"/>
			<point x="50" y="700" type="line"/>
			<point x="350" y="700" type="line"/>
			<point x="350" y="800" type="line"/>
		</contour>
		<contour>
			<point x="50" y="250" type="line"/>
			<point x="50" y="100" type="line"/>
			<point x="150" y="100" type="line"/>
			<point x="150" y="250" type="line"/>
		</contour>
		<contour>
			<point x="150" y="100" type="line"/>
			<point x="150" y="0" type="line"/>
			<point x="450" y="0" type="line"/>
			<point x="450" y="100" type="line"/>
		</contour>
		<contour>
			<point x="150" y="400" type="line"/>
			<point x="150" y="250" type="line"/>
			<point x="250" y="250" type="line"/>
			<point x="250" y="400" type="line"/>
		</contour>
		<contour>
			<point x="250" y="550" type="line"/>
			<point x="250" y="400" type="line"/>
			<point x="350" y="400" type="line"/>
			<point x="350" y="550" type="line"/>
		</contour>
		<contour>
			<point x="350" y="700" type="line"/>
			<point x="350" y="550" type="line"/>
			<point x="450" y="550" type="line"/>
			<point x="450" y="700" type="line"/>
		</contour>
		<component base="uni030C" xOffset="450" yOffset="300"/>
	</outline>
</glyph>
<glyph name="gravecomb" format="2">
	<advance width="0"/>
	<unicode hex="0300"/>
	<anchor x="-100" y="800" name="top"/>
	<anchor x="-100" y="500" name="_top"/>
	<outline>
		<contour>
			<point x="-250" y="800" type="line"/>
			<point x="-250" y="700" type="line"/>
			<point x="-150" y="700" type="line"/>
			<point x="-150" y="800" type="line"/>
		</contour>
		<contour>
			<point x="-150" y="700" type="line"/>
			<point x="-150" y="600" type="line"/>
			<point x="-50" y="600" type="line"/>
			<point x="-50" y="700" type="line"/>
		</contour>
	</outline>
</glyph>
<glyph name="uni0304" format="2">
	<advance width="0"/>
	<unicode hex="0304"/>
	<anchor x="-200" y="700" name="top"/>
	<anchor x="-200" y="500" name="_top"/>
	<outline>
		<contour>
			<point x="-350" y="700" type="line"/>
			<point x="-350" y="600" type="line"/>
			<point x="-50" y="600" type="line"/>
			<point x="-50" y="700" type="line"/>
		</contour>
	</outline>
</glyph>
<glyph name="uni0307" format="2">
	<advance width="0"/>
	<unicode hex="0307"/>
	<anchor x="-100" y="700" name="top"/>
	<anchor x="-100" y="500" name="_top"/>
	<outline>
		<contour>
			<point x="-150" y="700" type="line"/>
			<point x="-150" y="600" type="line"/>
			<point x="-50" y="600" type="line"/>
			<point x="-50" y="700" type="line"/>
		</contour>
	</outline>
</glyph>
<glyph name="uni0308" format="2">
	<advance width="0"/>
	<unicode hex="0308"/>
	<anchor x="-200" y="700" name="top"/>
	<anchor x="-200" y="500" name="_top"/>
	<outline>
		<contour>
			<point x="-150" y="700" type="line"/>
			<point x="-150" y="600" type="line"/>
			<point x="-50" y="600" type="line"/>
			<point x="-50" y="700" type="line"/>
		</contour>
		<contour>
			<point x="-350" y="700" type="line"/>
			<point x="-350" y="600" type="line"/>
			<point x="-250" y="600" type="line"/>
			<point x="-250" y="700" type="line"/>
		</contour>
	</outline>
</glyph>
<glyph name="uni030A" format="2">
	<advance width="0"/>
	<unicode hex="030A"/>
	<anchor x="-200" y="900" name="top"/>
	<anchor x="-200" y="500" name="_top"/>
	<outline>
		<contour>
			<point x="-150" y="800" type="line"/>
			<point x="-150" y="700" type="line"/>
			<point x="-50" y="700" type="line"/>
			<point x="-50" y="800" type="line"/>
		</contour>
		<contour>
			<point x="-350" y="800" type="line"/>
			<point x="-350" y="700" type="line"/>
			<point x="-250" y="700" type="line"/>
			<point x="-250" y="800" type="line"/>
		</contour>
		<contour>
			<point x="-250" y="700" type="line"/>
			<point x="-250" y="600" type="line"/>
			<point x="-150" y="600" type="line"/>
			<point x="-150" y="700" type="line"/>
		</contour>
		<contour>
			<point x="-250" y="900" type="line"/>
			<point x="-250" y="800" type="line"/>
			<point x="-150" y="800" type="line"/>
			<point x="-150" y="900" type="line"/>
		</contour>
	</outline>
</glyph>
<glyph name="uni030B" format="2">
	<advance width="0"/>
	<unicode hex="030B"/>
	<anchor x="-300" y="800" name="top"/>
	<anchor x="-300" y="500" name="_top"/>
	<outline>
		<contour>
			<point x="-150" y="900" type="line"/>
			<point x="-150" y="750" type="line"/>
			<point x="-50" y="750" type="line"/>
			<point x="-50" y="900" type="line"/>
		</contour>
		<contour>
			<point x="-450" y="750" type="line"/>
			<point x="-450" y="600" type="line"/>
			<point x="-350" y="600" type="line"/>
			<point x="-350" y="750" type="line"/>
		</contour>
		<contour>
			<point x="-250" y="750" type="line"/>
			<point x="-250" y="600" type="line"/>
			<point x="-150" y="600" type="line"/>
			<point x="-150" y="750" type="line"/>
		</contour>
		<contour>
			<point x="-350" y="900" type="line"/>
			<point x="-350" y="750" type="line"/>
			<point x="-250" y="750" type="line"/>
			<point x="-250" y="900" type="line"/>
		</contour>
	</outline>
</glyph>
<glyph name="uni0312" format="2">
	<advance width="0"/>
	<unicode hex="0312"/>
	<anchor x="-100" y="700" name="top"/>
	<anchor x="-100" y="500" name="_top"/>
	<outline>
		<contour>
			<point x="-150" y="800" type="line"/>
			<point x="-150" y="600" type="line"/>
			<point x="-50" y="600" type="line"/>
			<point x="-50" y="800" type="line"/>
		</contour>
	</outline>
</glyph>
<glyph name="uni0326" format="2">
	<advance width="0"/>
	<unicode hex="0326"/>
	<anchor x="-100" y="0" name="_bottom"/>
	<anchor x="-150" y="-250" name="bottom"/>
	<outline>
		<contour>
			<point x="-150" y="-50" type="line"/>
			<point x="-150" y="-150" type="line"/>
			<point x="-50" y="-150" type="line"/>
			<point x="-50" y="-50" type="line"/>
		</contour>
		<contour>
			<point x="-250" y="-150" type="line"/>
			<point x="-250" y="-250" type="line"/>
			<point x="-150" y="-250" type="line"/>
			<point x="-150" y="-150" type="line"/>
		</contour>
	</outline>
</glyph>
<glyph name="uni0328" format="2">
	<advance width="0"/>
	<unicode hex="0328"/>
	<anchor x="-150" y="0" name="_ogonek"/>
	<outline>
		<contour>
			<point x="-250" y="-100" type="line"/>
			<point x="-250" y="-200" type="line"/>
			<point x="-150" y="-200" type="line"/>
			<point x="-150" y="-100" type="line"/>
		</contour>
		<contour>
			<point x="-150" y="-200" type="line"/>
			<point x="-150" y="-300" type="line"/>
			<point x="-50" y="-300" type="line"/>
			<point x="-50" y="-200" type="line"/>
		</contour>
		<contour>
			<point x="-150" y="0" type="line"/>
			<point x="-150" y="-100" type="line"/>
			<point x="-50" y="-100" type="line"/>
			<point x="-50" y="0" type="line"/>
		</contour>
	</outline>
</glyph>
<glyph name="uni1E9E" format="2">
	<advance width="550"/>
	<unicode hex="1E9E"/>
	<outline>
		<contour>
			<point x="50" y="700" type="line"/>
			<point x="50" y="0" type="line"/>
			<point x="150" y="0" type="line"/>
			<point x="150" y="700" type="line"/>
		</contour>
		<contour>
			<point x="250" y="100" type="line"/>
			<point x="250" y="0" type="line"/>
			<point x="400" y="0" type="line"/>
			<point x="400" y="100" type="line"/>
		</contour>
		<contour>
			<point x="400" y="400" type="line"/>
			<point x="400" y="100" type="line"/>
			<point x="500" y="100" type="line"/>
			<point x="500" y="400" type="line"/>
		</contour>
		<contour>
			<point x="300" y="500" type="line"/>
			<point x="300" y="400" type="line"/>
			<point x="400" y="400" type="line"/>
			<point x="400" y="500" type="line"/>
		</contour>
		<contour>
			<point x="150" y="800" type="line"/>
			<point x="150" y="700" type="line"/>
			<point x="400" y="700" type="line"/>
			<point x="400" y="800" type="line"/>
		</contour>
		<contour>
			<point x="400" y="700" type="line"/>
			<point x="400" y="500" type="line"/>
			<point x="500" y="500" type="line"/>
			<point x="500" y="700" type="line"/>
		</contour>
	</outline>
</glyph>
<glyph name="quoteleft" format="2">
	<advance width="200"/>
	<unicode hex="2018"/>
	<outline>
		<contour>
			<point x="0" y="700" type="line"/>
			<point x="0" y="500" type="line"/>
			<point x="100" y="500" type="line"/>
			<point x="100" y="700" type="line"/>
		</contour>
		<contour>
			<point x="100" y="800" type="line"/>
			<point x="100" y="700" type="line"/>
			<point x="200" y="700" type="line"/>
			<point x="200" y="800" type="line"/>
		</contour>
	</outline>
</glyph>
<glyph name="quoteright" format="2">
	<advance width="200"/>
	<unicode hex="2019"/>
	<outline>
		<contour>
			<point x="100" y="800" type="line"/>
			<point x="100" y="600" type="line"/>
			<point x="200" y="600" type="line"/>
			<point x="200" y="800" type="line"/>
		</contour>
		<contour>
			<point x="0" y="600" type="line"/>
			<point x="0" y="500" type="line"/>
			<point x="100" y="500" type="line"/>
			<point x="100" y="600" type="line"/>
		</contour>
	</outline>
</glyph>
<glyph name="quotedblleft" format="2">
	<advance width="400"/>
	<unicode hex="201C"/>
	<outline>
		<contour>
			<point x="200" y="700" type="line"/>
			<point x="200" y="500" type="line"/>
			<point x="300" y="500" type="line"/>
			<point x="300" y="700" type="line"/>
		</contour>
		<contour>
			<point x="0" y="700" type="line"/>
			<point x="0" y="500" type="line"/>
			<point x="100" y="500" type="line"/>
			<point x="100" y="700" type="line"/>
		</contour>
		<contour>
			<point x="100" y="800" type="line"/>
			<point x="100" y="700" type="line"/>
			<point x="200" y="700" type="line"/>
			<point x="200" y="800" type="line"/>
		</contour>
		<contour>
			<point x="300" y="800" type="line"/>
			<point x="300" y="700" type="line"/>
			<point x="400" y="700" type="line"/>
			<point x="400" y="800" type="line"/>
		</contour>
	</outline>
</glyph>
<glyph name="quotedblbase" format="2">
	<advance width="350"/>
	<unicode hex="201E"/>
	<outline>
		<contour>
			<point x="250" y="100" type="line"/>
			<point x="250" y="-100" type="line"/>
			<point x="350" y="-100" type="line"/>
			<point x="350" y="100" type="line"/>
		</contour>
		<contour>
			<point x="150" y="-100" type="line"/>
			<point x="150" y="-200" type="line"/>
			<point x="250" y="-200" type="line"/>
			<point x="250" y="-100" type="line"/>
		</contour>
		<contour>
			<point x="50" y="100" type="line"/>
			<point x="50" y="-100" type="line"/>
			<point x="150" y="-100" type="line"/>
			<point x="150" y="100" type="line"/>
		</contour>
		<contour>
			<point x="-50" y="-100" type="line"/>
			<point x="-50" y="-200" type="line"/>
			<point x="50" y="-200" type="line"/>
			<point x="50" y="-100" type="line"/>
		</contour>
	</outline>
</glyph>
<glyph name="dagger" format="2">
	<advance width="600"/>
	<unicode hex="2020"/>
	<outline>
		<contour>
			<point x="250" y="500" type="line"/>
			<point x="250" y="0" type="line"/>
			<point x="350" y="0" type="line"/>
			<point x="350" y="500" type="line"/>
		</contour>
		<contour>
			<point x="50" y="600" type="line"/>
			<point x="50" y="500" type="line"/>
			<point x="250" y="500" type="line"/>
			<point x="250" y="600" type="line"/>
		</contour>
		<contour>
			<point x="250" y="800" type="line"/>
			<point x="250" y="600" type="line"/>
			<point x="350" y="600" type="line"/>
			<point x="350" y="800" type="line"/>
		</contour>
		<contour>
			<point x="350" y="600" type="line"/>
			<point x="350" y="500" type="line"/>
			<point x="550" y="500" type="line"/>
			<point x="550" y="600" type="line"/>
		</contour>
	</outline>
</glyph>
<glyph name="perthousand" format="2">
	<advance width="827"/>
	<unicode hex="2030"/>
	<outline>
		<contour>
			<point x="687" y="-4" type="curve"/>
			<point x="687" y="-4" type="line"/>
			<point x="745" y="-4"/>
			<point x="792" y="43"/>
			<point x="792" y="101" type="curve"/>
			<point x="792" y="158"/>
			<point x="745" y="206"/>
			<point x="687" y="206" type="curve"/>
			<point x="629" y="206"/>
			<point x="582" y="158"/>
			<point x="582" y="101" type="curve"/>
			<point x="582" y="43"/>
			<point x="629" y="-4"/>
		</contour>
		<contour>
			<point x="91" y="150" type="line"/>
			<point x="91" y="0" type="line"/>
			<point x="191" y="0" type="line"/>
			<point x="191" y="150" type="line"/>
		</contour>
		<contour>
			<point x="191" y="300" type="line"/>
			<point x="191" y="150" type="line"/>
			<point x="291" y="150" type="line"/>
			<point x="291" y="300" type="line"/>
		</contour>
		<contour>
			<point x="442" y="-4" type="curve"/>
			<point x="442" y="-4" type="line"/>
			<point x="500" y="-4"/>
			<point x="547" y="43"/>
			<point x="547" y="101" type="curve"/>
			<point x="547" y="158"/>
			<point x="500" y="206"/>
			<point x="442" y="206" type="curve"/>
			<point x="384" y="206"/>
			<point x="337" y="158"/>
			<point x="337" y="101" type="curve"/>
			<point x="337" y="43"/>
			<point x="384" y="-4"/>
		</contour>
		<contour>
			<point x="140" y="395" type="curve"/>
			<point x="140" y="395" type="line"/>
			<point x="198" y="395"/>
			<point x="245" y="442"/>
			<point x="245" y="500" type="curve"/>
			<point x="245" y="557"/>
			<point x="198" y="605"/>
			<point x="140" y="605" type="curve"/>
			<point x="82" y="605"/>
			<point x="35" y="557"/>
			<point x="35" y="500" type="curve"/>
			<point x="35" y="442"/>
			<point x="82" y="395"/>
		</contour>
		<contour>
			<point x="291" y="450" type="line"/>
			<point x="291" y="300" type="line"/>
			<point x="391" y="300" type="line"/>
			<point x="391" y="450" type="line"/>
		</contour>
		<contour>
			<point x="391" y="600" type="line"/>
			<point x="391" y="450" type="line"/>
			<point x="491" y="450" type="line"/>
			<point x="491" y="600" type="line"/>
		</contour>
	</outline>
</glyph>
<glyph name="arrowright" format="2">
	<advance width="900"/>
	<unicode hex="2192"/>
	<outline>
		<contour>
			<point x="50" y="300" type="line"/>
			<point x="50" y="200" type="line"/>
			<point x="650" y="200" type="line"/>
			<point x="650" y="300" type="line"/>
		</contour>
		<contour>
			<point x="550" y="100" type="line"/>
			<point x="550" y="0" type="line"/>
			<point x="650" y="0" type="line"/>
			<point x="650" y="100" type="line"/>
		</contour>
		<contour>
			<point x="650" y="200" type="line"/>
			<point x="650" y="100" type="line"/>
			<point x="750" y="100" type="line"/>
			<point x="750" y="200" type="line"/>
		</contour>
		<contour>
			<point x="750" y="300" type="line"/>
			<point x="750" y="200" type="line"/>
			<point x="850" y="200" type="line"/>
			<point x="850" y="300" type="line"/>
		</contour>
		<contour>
			<point x="650" y="400" type="line"/>
			<point x="650" y="300" type="line"/>
			<point x="750" y="300" type="line"/>
			<point x="750" y="400" type="line"/>
		</contour>
		<contour>
			<point x="550" y="500" type="line"/>
			<point x="550" y="400" type="line"/>
			<point x="650" y="400" type="line"/>
			<point x="650" y="500" type="line"/>
		</contour>
	</outline>
</glyph>
<glyph name="product" format="2">
	<advance width="650"/>
	<unicode hex="220F"/>
	<outline>
		<contour>
			<point x="400" y="700" type="line"/>
			<point x="400" y="0" type="line"/>
			<point x="500" y="0" type="line"/>
			<point x="500" y="700" type="line"/>
		</contour>
		<contour>
			<point x="150" y="700" type="line"/>
			<point x="150" y="0" type="line"/>
			<point x="250" y="0" type="line"/>
			<point x="250" y="700" type="line"/>
		</contour>
		<contour>
			<point x="50" y="800" type="line"/>
			<point x="50" y="700" type="line"/>
			<point x="150" y="700" type="line"/>
			<point x="150" y="800" type="line"/>
		</contour>
		<contour>
			<point x="250" y="800" type="line"/>
			<point x="250" y="700" type="line"/>
			<point x="400" y="700" type="line"/>
			<point x="400" y="800" type="line"/>
		</contour>
		<contour>
			<point x="500" y="800" type="line"/>
			<point x="500" y="700" type="line"/>
			<point x="600" y="700" type="line"/>
			<point x="600" y="800" type="line"/>
		</contour>
	</outline>
</glyph>
<glyph name="infinity" format="2">
	<advance width="1200"/>
	<unicode hex="221E"/>
	<outline>
		<contour>
			<point x="750" y="600" type="line"/>
			<point x="750" y="500" type="line"/>
			<point x="1050" y="500" type="line"/>
			<point x="1050" y="600" type="line"/>
		</contour>
		<contour>
			<point x="50" y="500" type="line"/>
			<point x="50" y="200" type="line"/>
			<point x="150" y="200" type="line"/>
			<point x="150" y="500" type="line"/>
		</contour>
		<contour>
			<point x="150" y="200" type="line"/>
			<point x="150" y="100" type="line"/>
			<point x="450" y="100" type="line"/>
			<point x="450" y="200" type="line"/>
		</contour>
		<contour>
			<point x="450" y="300" type="line"/>
			<point x="450" y="200" type="line"/>
			<point x="550" y="200" type="line"/>
			<point x="550" y="300" type="line"/>
		</contour>
		<contour>
			<point x="150" y="600" type="line"/>
			<point x="150" y="500" type="line"/>
			<point x="450" y="500" type="line"/>
			<point x="450" y="600" type="line"/>
		</contour>
		<contour>
			<point x="450" y="500" type="line"/>
			<point x="450" y="400" type="line"/>
			<point x="550" y="400" type="line"/>
			<point x="550" y="500" type="line"/>
		</contour>
		<contour>
			<point x="550" y="400" type="line"/>
			<point x="550" y="300" type="line"/>
			<point x="650" y="300" type="line"/>
			<point x="650" y="400" type="line"/>
		</contour>
		<contour>
			<point x="650" y="300" type="line"/>
			<point x="650" y="200" type="line"/>
			<point x="750" y="200" type="line"/>
			<point x="750" y="300" type="line"/>
		</contour>
		<contour>
			<point x="750" y="200" type="line"/>
			<point x="750" y="100" type="line"/>
			<point x="1050" y="100" type="line"/>
			<point x="1050" y="200" type="line"/>
		</contour>
		<contour>
			<point x="650" y="500" type="line"/>
			<point x="650" y="400" type="line"/>
			<point x="750" y="400" type="line"/>
			<point x="750" y="500" type="line"/>
		</contour>
		<contour>
			<point x="1050" y="500" type="line"/>
			<point x="1050" y="200" type="line"/>
			<point x="1150" y="200" type="line"/>
			<point x="1150" y="500" type="line"/>
		</contour>
	</outline>
</glyph>
<glyph name="lessequal" format="2">
	<advance width="500"/>
	<unicode hex="2264"/>
	<outline>
		<contour>
			<point x="50" y="200" type="line"/>
			<point x="50" y="100" type="line"/>
			<point x="450" y="100" type="line"/>
			<point x="450" y="200" type="line"/>
		</contour>
		<contour>
			<point x="50" y="500" type="line"/>
			<point x="50" y="400" type="line"/>
			<point x="250" y="400" type="line"/>
			<point x="250" y="500" type="line"/>
		</contour>
		<contour>
			<point x="250" y="400" type="line"/>
			<point x="250" y="300" type="line"/>
			<point x="450" y="300" type="line"/>
			<point x="450" y="400" type="line"/>
		</contour>
		<contour>
			<point x="250" y="600" type="line"/>
			<point x="250" y="500" type="line"/>
			<point x="450" y="500" type="line"/>
			<point x="450" y="600" type="line"/>
		</contour>
	</outline>
</glyph>
<glyph name="uni25A2" format="2">
	<advance width="900"/>
	<unicode hex="25A2"/>
	<outline>
		<contour>
			<point x="750" y="700" type="line"/>
			<point x="750" y="100" type="line"/>
			<point x="850" y="100" type="line"/>
			<point x="850" y="700" type="line"/>
		</contour>
		<contour>
			<point x="50" y="700" type="line"/>
			<point x="50" y="100" type="line"/>
			<point x="150" y="100" type="line"/>
			<point x="150" y="700" type="line"/>
		</contour>
		<contour>
			<point x="150" y="100" type="line"/>
			<point x="150" y="0" type="line"/>
			<point x="750" y="0" type="line"/>
			<point x="750" y="100" type="line"/>
		</contour>
		<contour>
			<point x="150" y="800" type="line"/>
			<point x="150" y="700" type="line"/>
			<point x="750" y="700" type="line"/>
			<point x="750" y="800" type="line"/>
		</contour>
	</outline>
</glyph>
<glyph name="uni25E7" format="2">
	<advance width="700"/>
	<unicode hex="25E7"/>
	<outline>
		<contour>
			<point x="50" y="600" type="line"/>
			<point x="50" y="200" type="line"/>
			<point x="300" y="200" type="line"/>
			<point x="300" y="600" type="line"/>
		</contour>
		<contour>
			<point x="300" y="200" type="line"/>
			<point x="300" y="100" type="line"/>
			<point x="550" y="100" type="line"/>
			<point x="550" y="200" type="line"/>
		</contour>
		<contour>
			<point x="550" y="600" type="line"/>
			<point x="550" y="200" type="line"/>
			<point x="650" y="200" type="line"/>
			<point x="650" y="600" type="line"/>
		</contour>
		<contour>
			<point x="300" y="700" type="line"/>
			<point x="300" y="600" type="line"/>
			<point x="550" y="600" type="line"/>
			<point x="550" y="700" type="line"/>
		</contour>
	</outline>
</glyph>
<glyph name="uniFF62" format="2">
	<advance width="350"/>
	<unicode hex="FF62"/>
	<outline>
		<contour>
			<point x="50" y="700" type="line"/>
			<point x="50" y="350" type="line"/>
			<point x="150" y="350" type="line"/>
			<point x="150" y="700" type="line"/>
		</contour>
		<contour>
			<point x="150" y="800" type="line"/>
			<point x="150" y="700" type="line"/>
			<point x="350" y="700" type="line"/>
			<point x="350" y="800" type="line"/>
		</contour>
	</outline>
</glyph>
<glyph name="uniFF63" format="2">
	<advance width="350"/>
	<unicode hex="FF63"/>
	<outline>
		<contour>
			<point x="200" y="350" type="line"/>
			<point x="200" y="0" type="line"/>
			<point x="300" y="0" type="line"/>
			<point x="300" y="350" type="line"/>
		</contour>
		<contour>
			<point x="0" y="0" type="line"/>
			<point x="0" y="-100" type="line"/>
			<point x="200" y="-100" type="line"/>
			<point x="200" y="0" type="line"/>
		</contour>
	</outline>
</glyph>
<glyph name="_part.point" format="2">
	<advance width="200"/>
	<outline>
		<contour>
			<point x="50" y="100" type="line"/>
			<point x="50" y="0" type="line"/>
			<point x="150" y="0" type="line"/>
			<point x="150" y="100" type="line"/>
		</contour>
	</outline>
</glyph>
<glyph name="f_f.liga" format="2">
	<advance width="700"/>
	<outline>
		<contour>
			<point x="400" y="400" type="line"/>
			<point x="400" y="0" type="line"/>
			<point x="500" y="0" type="line"/>
			<point x="500" y="400" type="line"/>
		</contour>
		<contour>
			<point x="50" y="400" type="line"/>
			<point x="50" y="0" type="line"/>
			<point x="150" y="0" type="line"/>
			<point x="150" y="400" type="line"/>
		</contour>
		<contour>
			<point x="50" y="600" type="line"/>
			<point x="50" y="500" type="line"/>
			<point x="150" y="500" type="line"/>
			<point x="150" y="600" type="line"/>
		</contour>
		<contour>
			<point x="150" y="500" type="line"/>
			<point x="150" y="400" type="line"/>
			<point x="400" y="400" type="line"/>
			<point x="400" y="500" type="line"/>
		</contour>
		<contour>
			<point x="150" y="700" type="line"/>
			<point x="150" y="600" type="line"/>
			<point x="350" y="600" type="line"/>
			<point x="350" y="700" type="line"/>
		</contour>
		<contour>
			<point x="400" y="600" type="line"/>
			<point x="400" y="500" type="line"/>
			<point x="500" y="500" type="line"/>
			<point x="500" y="600" type="line"/>
		</contour>
		<contour>
			<point x="500" y="500" type="line"/>
			<point x="500" y="400" type="line"/>
			<point x="700" y="400" type="line"/>
			<point x="700" y="500" type="line"/>
		</contour>
		<contour>
			<point x="500" y="700" type="line"/>
			<point x="500" y="600" type="line"/>
			<point x="700" y="600" type="line"/>
			<point x="700" y="700" type="line"/>
		</contour>
	</outline>
</glyph>
<glyph name="iacute_j.loclNLD" format="2">
	<advance width="485"/>
	<outline>
		<contour>
			<point x="285" y="400" type="line"/>
			<point x="285" y="-100" type="line"/>
			<point x="385" y="-100" type="line"/>
			<point x="385" y="400" type="line"/>
		</contour>
		<contour>
			<point x="185" y="-100" type="line"/>
			<point x="185" y="-200" type="line"/>
			<point x="285" y="-200" type="line"/>
			<point x="285" y="-100" type="line"/>
		</contour>
		<contour>
			<point x="50" y="400" type="line"/>
			<point x="50" y="0" type="line"/>
			<point x="150" y="0" type="line"/>
			<point x="150" y="400" type="line"/>
		</contour>
		<contour>
			<point x="50" y="600" type="line"/>
			<point x="50" y="500" type="line"/>
			<point x="150" y="500" type="line"/>
			<point x="150" y="600" type="line"/>
		</contour>
		<contour>
			<point x="150" y="700" type="line"/>
			<point x="150" y="600" type="line"/>
			<point x="250" y="600" type="line"/>
			<point x="250" y="700" type="line"/>
		</contour>
		<contour>
			<point x="285" y="600" type="line"/>
			<point x="285" y="500" type="line"/>
			<point x="385" y="500" type="line"/>
			<point x="385" y="600" type="line"/>
		</contour>
		<contour>
			<point x="385" y="700" type="line"/>
			<point x="385" y="600" type="line"/>
			<point x="485" y="600" type="line"/>
			<point x="485" y="700" type="line"/>
		</contour>
	</outline>
</glyph>
<glyph name="l_l.liga" format="2">
	<advance width="600"/>
	<outline>
		<contour>
			<point x="350" y="700" type="line"/>
			<point x="350" y="100" type="line"/>
			<point x="450" y="100" type="line"/>
			<point x="450" y="700" type="line"/>
		</contour>
		<contour>
			<point x="150" y="100" type="line"/>
			<point x="150" y="0" type="line"/>
			<point x="300" y="0" type="line"/>
			<point x="300" y="100" type="line"/>
		</contour>
		<contour>
			<point x="50" y="700" type="line"/>
			<point x="50" y="100" type="line"/>
			<point x="150" y="100" type="line"/>
			<point x="150" y="700" type="line"/>
		</contour>
		<contour>
			<point x="450" y="100" type="line"/>
			<point x="450" y="0" type="line"/>
			<point x="600" y="0" type="line"/>
			<point x="600" y="100" type="line"/>
		</contour>
	</outline>
</glyph>
<glyph name="t_t.liga" format="2">
	<advance width="800"/>
	<outline>
		<contour>
			<point x="450" y="400" type="line"/>
			<point x="450" y="100" type="line"/>
			<point x="550" y="100" type="line"/>
			<point x="550" y="400" type="line"/>
		</contour>
		<contour>
			<point x="250" y="100" type="line"/>
			<point x="250" y="0" type="line"/>
			<point x="450" y="0" type="line"/>
			<point x="450" y="100" type="line"/>
		</contour>
		<contour>
			<point x="150" y="400" type="line"/>
			<point x="150" y="100" type="line"/>
			<point x="250" y="100" type="line"/>
			<point x="250" y="400" type="line"/>
		</contour>
		<contour>
			<point x="50" y="500" type="line"/>
			<point x="50" y="400" type="line"/>
			<point x="150" y="400" type="line"/>
			<point x="150" y="500" type="line"/>
		</contour>
		<contour>
			<point x="550" y="100" type="line"/>
			<point x="550" y="0" type="line"/>
			<point x="750" y="0" type="line"/>
			<point x="750" y="100" type="line"/>
		</contour>
		<contour>
			<point x="150" y="600" type="line"/>
			<point x="150" y="500" type="line"/>
			<point x="250" y="500" type="line"/>
			<point x="250" y="600" type="line"/>
		</contour>
		<contour>
			<point x="250" y="500" type="line"/>
			<point x="250" y="400" type="line"/>
			<point x="450" y="400" type="line"/>
			<point x="450" y="500" type="line"/>
		</contour>
		<contour>
			<point x="450" y="600" type="line"/>
			<point x="450" y="500" type="line"/>
			<point x="550" y="500" type="line"/>
			<point x="550" y="600" type="line"/>
		</contour>
		<contour>
			<point x="550" y="500" type="line"/>
			<point x="550" y="400" type="line"/>
			<point x="750" y="400" type="line"/>
			<point x="750" y="500" type="line"/>
		</contour>
	</outline>
</glyph>
